<svg width="50" height="50" viewBox="0 0 50 50" fill="none" xmlns="http://www.w3.org/2000/svg">
<rect width="50" height="50" rx="7" fill="#FACC15"/>
<path d="M6.05753 41L6.78196 36.6364H8.58452C8.91122 36.6364 9.18324 36.6996 9.40057 36.826C9.6179 36.9524 9.77202 37.1293 9.86293 37.3565C9.95384 37.5838 9.97443 37.8473 9.92472 38.147C9.87642 38.4496 9.76776 38.7131 9.59872 38.9375C9.43111 39.1619 9.2152 39.3359 8.95099 39.4595C8.68679 39.5831 8.38636 39.6449 8.04972 39.6449H6.93963L7.07812 38.8139H7.99432C8.15483 38.8139 8.29332 38.7862 8.4098 38.7308C8.5277 38.6754 8.62216 38.598 8.69318 38.4986C8.7642 38.3991 8.81108 38.282 8.83381 38.147C8.85511 38.0121 8.84659 37.8956 8.80824 37.7976C8.76989 37.6982 8.70099 37.6214 8.60156 37.5675C8.50355 37.5135 8.37571 37.4865 8.21804 37.4865H7.69815L7.11222 41H6.05753ZM9.96573 41L10.5112 37.7273H11.5233L11.4231 38.3239H11.4572C11.5524 38.108 11.6767 37.9474 11.8301 37.8423C11.9835 37.7358 12.1497 37.6825 12.3287 37.6825C12.377 37.6825 12.4252 37.6861 12.4735 37.6932C12.5233 37.6989 12.5701 37.7074 12.6142 37.7188L12.4608 38.6264C12.4125 38.608 12.3493 38.5945 12.2711 38.5859C12.193 38.576 12.122 38.571 12.0581 38.571C11.9345 38.571 11.8194 38.5987 11.7129 38.6541C11.6078 38.7081 11.5183 38.7841 11.4444 38.8821C11.372 38.9787 11.3244 39.0923 11.3017 39.223L11.0076 41H9.96573ZM13.8468 41.0618C13.5016 41.0618 13.2168 40.9908 12.9924 40.8487C12.7694 40.7067 12.6124 40.5085 12.5215 40.2543C12.4306 40 12.4128 39.7045 12.4682 39.3679C12.5236 39.0327 12.638 38.7386 12.8113 38.4858C12.9846 38.233 13.2061 38.0362 13.476 37.8956C13.7459 37.755 14.052 37.6847 14.3944 37.6847C14.7381 37.6847 15.0215 37.7557 15.2445 37.8977C15.4689 38.0398 15.6266 38.2379 15.7175 38.4922C15.8098 38.7464 15.8283 39.0426 15.7729 39.3807C15.7175 39.7159 15.6025 40.0099 15.4277 40.2628C15.253 40.5142 15.0314 40.7102 14.763 40.8509C14.4945 40.9915 14.1891 41.0618 13.8468 41.0618ZM13.964 40.2756C14.0918 40.2756 14.2061 40.2372 14.307 40.1605C14.4093 40.0838 14.4952 39.9766 14.5648 39.8388C14.6344 39.701 14.6841 39.5412 14.714 39.3594C14.7438 39.1804 14.7466 39.0234 14.7225 38.8885C14.6998 38.7521 14.6515 38.6463 14.5776 38.571C14.5037 38.4943 14.4036 38.456 14.2772 38.456C14.1493 38.456 14.0343 38.495 13.932 38.5732C13.8297 38.6499 13.7438 38.7571 13.6742 38.8949C13.606 39.0312 13.557 39.1911 13.5272 39.3743C13.4973 39.5533 13.4938 39.7102 13.5165 39.8452C13.5392 39.9801 13.5882 40.0859 13.6635 40.1626C13.7388 40.2379 13.839 40.2756 13.964 40.2756ZM16.0424 41L16.5879 37.7273H17.5787L17.4806 38.3281H17.5169C17.6163 38.1293 17.7569 37.9723 17.9387 37.8572C18.1206 37.7422 18.3237 37.6847 18.5481 37.6847C18.774 37.6847 18.9579 37.7429 19.1 37.8594C19.2434 37.9759 19.3208 38.1321 19.3322 38.3281H19.3663C19.46 38.1335 19.6049 37.978 19.801 37.8615C19.9984 37.7436 20.2186 37.6847 20.4615 37.6847C20.7683 37.6847 21.002 37.7841 21.1625 37.983C21.3244 38.1804 21.3762 38.4517 21.318 38.7969L20.9515 41H19.9118L20.2441 39.0355C20.2669 38.8722 20.2427 38.7479 20.1717 38.6626C20.1021 38.576 20.0005 38.5327 19.867 38.5327C19.7235 38.5327 19.6035 38.5788 19.5069 38.6712C19.4118 38.7635 19.3528 38.8885 19.3301 39.0462L18.9998 41H17.9963L18.3308 39.0249C18.3521 38.8729 18.3287 38.7528 18.2605 38.6648C18.1937 38.5767 18.0922 38.5327 17.9558 38.5327C17.8663 38.5327 17.7832 38.5547 17.7065 38.5987C17.6298 38.6413 17.5652 38.7024 17.5126 38.782C17.4615 38.8615 17.4281 38.9553 17.4125 39.0632L17.0843 41H16.0424ZM23.1163 41.0618C22.7711 41.0618 22.4863 40.9908 22.2619 40.8487C22.0389 40.7067 21.8819 40.5085 21.791 40.2543C21.7001 40 21.6824 39.7045 21.7377 39.3679C21.7931 39.0327 21.9075 38.7386 22.0808 38.4858C22.2541 38.233 22.4757 38.0362 22.7456 37.8956C23.0154 37.755 23.3216 37.6847 23.6639 37.6847C24.0076 37.6847 24.291 37.7557 24.514 37.8977C24.7385 38.0398 24.8961 38.2379 24.987 38.4922C25.0794 38.7464 25.0978 39.0426 25.0424 39.3807C24.987 39.7159 24.872 40.0099 24.6973 40.2628C24.5225 40.5142 24.301 40.7102 24.0325 40.8509C23.764 40.9915 23.4586 41.0618 23.1163 41.0618ZM23.2335 40.2756C23.3613 40.2756 23.4757 40.2372 23.5765 40.1605C23.6788 40.0838 23.7647 39.9766 23.8343 39.8388C23.9039 39.701 23.9537 39.5412 23.9835 39.3594C24.0133 39.1804 24.0162 39.0234 23.992 38.8885C23.9693 38.7521 23.921 38.6463 23.8471 38.571C23.7733 38.4943 23.6731 38.456 23.5467 38.456C23.4189 38.456 23.3038 38.495 23.2015 38.5732C23.0993 38.6499 23.0133 38.7571 22.9437 38.8949C22.8755 39.0312 22.8265 39.1911 22.7967 39.3743C22.7669 39.5533 22.7633 39.7102 22.786 39.8452C22.8088 39.9801 22.8578 40.0859 22.9331 40.1626C23.0083 40.2379 23.1085 40.2756 23.2335 40.2756ZM28.1138 41.0618C27.7686 41.0618 27.4838 40.9908 27.2594 40.8487C27.0364 40.7067 26.8801 40.5092 26.7907 40.2564C26.7012 40.0021 26.6848 39.7081 26.7417 39.3743C26.7956 39.0391 26.91 38.745 27.0847 38.4922C27.2594 38.2379 27.4824 38.0398 27.7537 37.8977C28.025 37.7557 28.3319 37.6847 28.6742 37.6847C28.9767 37.6847 29.231 37.7393 29.437 37.8487C29.6444 37.9581 29.7942 38.1129 29.8865 38.3132C29.9803 38.5121 30.008 38.7457 29.9696 39.0142H28.9959C29.0044 38.848 28.9703 38.7173 28.8936 38.6222C28.8169 38.5256 28.7054 38.4773 28.5591 38.4773C28.4355 38.4773 28.3219 38.5114 28.2182 38.5795C28.1159 38.6463 28.0286 38.7457 27.9561 38.8778C27.8851 39.0085 27.834 39.1705 27.8027 39.3636C27.7715 39.5568 27.7694 39.7202 27.7963 39.8537C27.8248 39.9858 27.878 40.0859 27.9561 40.1541C28.0357 40.2209 28.1365 40.2543 28.2587 40.2543C28.3553 40.2543 28.4448 40.2337 28.5272 40.1925C28.6096 40.1513 28.6813 40.0909 28.7424 40.0114C28.8034 39.9304 28.851 39.8324 28.8851 39.7173H29.8567C29.8013 39.9886 29.6941 40.2251 29.535 40.4268C29.3773 40.6271 29.1777 40.7834 28.9363 40.8956C28.6948 41.0064 28.4206 41.0618 28.1138 41.0618ZM31.7003 41.0618C31.3551 41.0618 31.0703 40.9908 30.8459 40.8487C30.6229 40.7067 30.4659 40.5085 30.375 40.2543C30.2841 40 30.2663 39.7045 30.3217 39.3679C30.3771 39.0327 30.4915 38.7386 30.6648 38.4858C30.8381 38.233 31.0597 38.0362 31.3295 37.8956C31.5994 37.755 31.9055 37.6847 32.2479 37.6847C32.5916 37.6847 32.875 37.7557 33.098 37.8977C33.3224 38.0398 33.4801 38.2379 33.571 38.4922C33.6634 38.7464 33.6818 39.0426 33.6264 39.3807C33.571 39.7159 33.456 40.0099 33.2812 40.2628C33.1065 40.5142 32.8849 40.7102 32.6165 40.8509C32.348 40.9915 32.0426 41.0618 31.7003 41.0618ZM31.8175 40.2756C31.9453 40.2756 32.0597 40.2372 32.1605 40.1605C32.2628 40.0838 32.3487 39.9766 32.4183 39.8388C32.4879 39.701 32.5376 39.5412 32.5675 39.3594C32.5973 39.1804 32.6001 39.0234 32.576 38.8885C32.5533 38.7521 32.505 38.6463 32.4311 38.571C32.3572 38.4943 32.2571 38.456 32.1307 38.456C32.0028 38.456 31.8878 38.495 31.7855 38.5732C31.6832 38.6499 31.5973 38.7571 31.5277 38.8949C31.4595 39.0312 31.4105 39.1911 31.3807 39.3743C31.3509 39.5533 31.3473 39.7102 31.37 39.8452C31.3928 39.9801 31.4418 40.0859 31.517 40.1626C31.5923 40.2379 31.6925 40.2756 31.8175 40.2756ZM35.0806 41.0469C34.8391 41.0469 34.6296 40.9844 34.4521 40.8594C34.2745 40.7344 34.1474 40.5469 34.0707 40.2969C33.9954 40.0469 33.9883 39.7365 34.0494 39.3658C34.1133 38.9808 34.2269 38.6641 34.3903 38.4155C34.5536 38.1669 34.744 37.983 34.9613 37.8636C35.18 37.7443 35.4031 37.6847 35.6303 37.6847C35.8022 37.6847 35.9442 37.7145 36.0565 37.7741C36.1701 37.8324 36.2589 37.9077 36.3228 38C36.3867 38.0923 36.4308 38.1882 36.4549 38.2876H36.4783L36.7532 36.6364H37.7951L37.0707 41H36.0394L36.1268 40.4695H36.0948C36.0337 40.5703 35.9556 40.6648 35.8604 40.7528C35.7653 40.8409 35.6523 40.9119 35.5217 40.9659C35.3924 41.0199 35.2454 41.0469 35.0806 41.0469ZM35.5728 40.2351C35.6992 40.2351 35.8136 40.1996 35.9158 40.1286C36.0181 40.0561 36.104 39.9545 36.1737 39.8239C36.2447 39.6932 36.2944 39.5398 36.3228 39.3636C36.3526 39.1847 36.354 39.0305 36.3271 38.9013C36.3001 38.772 36.2468 38.6726 36.1673 38.603C36.0891 38.5334 35.9862 38.4986 35.8583 38.4986C35.7305 38.4986 35.6161 38.5341 35.5153 38.6051C35.4144 38.6761 35.3306 38.7763 35.2638 38.9055C35.1971 39.0348 35.1488 39.1875 35.119 39.3636C35.0906 39.5398 35.0877 39.6932 35.1104 39.8239C35.1346 39.9545 35.185 40.0561 35.2617 40.1286C35.3398 40.1996 35.4435 40.2351 35.5728 40.2351ZM39.2546 41.0618C38.9123 41.0618 38.6282 40.9943 38.4023 40.8594C38.1779 40.723 38.0202 40.5291 37.9293 40.2777C37.8384 40.0249 37.8221 39.7244 37.8803 39.3764C37.9371 39.0384 38.0529 38.7429 38.2276 38.4901C38.4038 38.2358 38.6254 38.0384 38.8924 37.8977C39.1594 37.7557 39.457 37.6847 39.7852 37.6847C40.0181 37.6847 40.2248 37.7209 40.4052 37.7933C40.5856 37.8658 40.7347 37.9737 40.8526 38.1172C40.9705 38.2592 41.0508 38.4339 41.0934 38.6413C41.136 38.8487 41.1346 39.0866 41.0891 39.3551L41.0487 39.6151H38.2063L38.3022 39.0099H40.1772C40.1942 38.8991 40.185 38.8004 40.1495 38.7138C40.114 38.6271 40.0565 38.5597 39.9769 38.5114C39.8988 38.4616 39.8029 38.4368 39.6893 38.4368C39.5742 38.4368 39.4663 38.4638 39.3654 38.5178C39.266 38.5703 39.1815 38.6413 39.1119 38.7308C39.0423 38.8203 38.9968 38.9212 38.9755 39.0334L38.8626 39.6534C38.8398 39.7912 38.8462 39.9091 38.8817 40.0071C38.9173 40.1051 38.9783 40.1804 39.065 40.233C39.1516 40.2841 39.2631 40.3097 39.3995 40.3097C39.4904 40.3097 39.5756 40.2976 39.6552 40.2734C39.7347 40.2479 39.8058 40.2102 39.8683 40.1605C39.9322 40.1094 39.984 40.0476 40.0238 39.9751L40.9741 40.0028C40.8974 40.2173 40.7788 40.4041 40.6183 40.5632C40.4577 40.7209 40.2617 40.8437 40.0302 40.9318C39.8001 41.0185 39.5415 41.0618 39.2546 41.0618ZM44.5765 38.7266L43.6369 38.7521C43.6383 38.6825 43.6227 38.6214 43.59 38.5689C43.5574 38.5149 43.5112 38.473 43.4515 38.4432C43.3919 38.4134 43.3208 38.3984 43.2385 38.3984C43.1049 38.3984 42.9849 38.4283 42.8784 38.4879C42.7733 38.5476 42.7143 38.625 42.7015 38.7202C42.6916 38.7713 42.7058 38.8161 42.7441 38.8544C42.7825 38.8913 42.8677 38.924 42.9998 38.9524L43.6135 39.0717C43.9288 39.1342 44.1575 39.2429 44.2995 39.3977C44.443 39.5511 44.4941 39.7543 44.4529 40.0071C44.416 40.223 44.3208 40.4098 44.1674 40.5675C44.0154 40.7251 43.8216 40.8473 43.5858 40.9339C43.3514 41.0192 43.0922 41.0618 42.8081 41.0618C42.3279 41.0618 41.9657 40.9652 41.7214 40.772C41.4785 40.5774 41.3649 40.3196 41.3805 39.9986L42.3947 39.973C42.399 40.0937 42.4395 40.1847 42.5162 40.2457C42.5943 40.3054 42.7001 40.3366 42.8336 40.3395C42.9799 40.3423 43.1064 40.3118 43.2129 40.2479C43.3194 40.1839 43.3791 40.1051 43.3919 40.0114C43.4004 39.9503 43.3798 39.9027 43.3301 39.8686C43.2818 39.8345 43.1916 39.804 43.0595 39.777L42.5055 39.6683C42.1873 39.6072 41.9572 39.4922 41.8152 39.3232C41.6745 39.1527 41.6262 38.9354 41.6703 38.6712C41.7072 38.4609 41.7939 38.2827 41.9302 38.1364C42.068 37.9886 42.2477 37.8764 42.4693 37.7997C42.6923 37.723 42.9466 37.6847 43.2321 37.6847C43.6895 37.6847 44.0346 37.7777 44.2676 37.9638C44.502 38.1484 44.6049 38.4027 44.5765 38.7266Z" fill="white"/>
<path d="M18.5 16C16.567 16 15 14.433 15 12.5C15 10.567 16.567 9 18.5 9C20.433 9 22 10.567 22 12.5C22 14.433 20.433 16 18.5 16Z" fill="#FDCC15" stroke="white" stroke-width="2"/>
<path d="M32.2843 9.18915C32.8168 8.55453 33.7629 8.47176 34.3975 9.00426V9.00426C35.0321 9.53676 35.1149 10.4829 34.5824 11.1175L17.3714 31.6288C16.8389 32.2634 15.8927 32.3462 15.2581 31.8137V31.8137C14.6235 31.2812 14.5407 30.3351 15.0732 29.7004L32.2843 9.18915Z" fill="white"/>
<rect x="28" y="25" width="7" height="7" rx="3.5" fill="#FDCC15" stroke="white" stroke-width="2"/>
</svg>
