<svg width="146" height="30" viewBox="0 0 146 30" fill="none" xmlns="http://www.w3.org/2000/svg">
<rect width="146" height="30" rx="5" transform="matrix(1 0 0 -1 0 30)" fill="#FDCC15"/>
<mask id="path-2-inside-1_3_10" fill="white">
<path fill-rule="evenodd" clip-rule="evenodd" d="M5 8.5C5 6.01472 7.01472 4 9.5 4C11.9853 4 14 6.01472 14 8.5C14 10.9853 11.9853 13 9.5 13C7.01472 13 5 10.9853 5 8.5ZM23.2627 5.06902C23.8071 4.4981 24.7629 4.41515 25.3975 4.88375C26.0321 5.35235 26.1053 6.19506 25.5609 6.76598L8.3929 24.7708C7.84851 25.3417 6.89273 25.4247 6.25812 24.956C5.62351 24.4874 5.55037 23.6447 6.09477 23.0738L23.2627 5.06902ZM22.5 17C20.0147 17 18 19.0147 18 21.5C18 23.9853 20.0147 26 22.5 26C24.9853 26 27 23.9853 27 21.5C27 19.0147 24.9853 17 22.5 17Z"/>
</mask>
<path fill-rule="evenodd" clip-rule="evenodd" d="M5 8.5C5 6.01472 7.01472 4 9.5 4C11.9853 4 14 6.01472 14 8.5C14 10.9853 11.9853 13 9.5 13C7.01472 13 5 10.9853 5 8.5ZM23.2627 5.06902C23.8071 4.4981 24.7629 4.41515 25.3975 4.88375C26.0321 5.35235 26.1053 6.19506 25.5609 6.76598L8.3929 24.7708C7.84851 25.3417 6.89273 25.4247 6.25812 24.956C5.62351 24.4874 5.55037 23.6447 6.09477 23.0738L23.2627 5.06902ZM22.5 17C20.0147 17 18 19.0147 18 21.5C18 23.9853 20.0147 26 22.5 26C24.9853 26 27 23.9853 27 21.5C27 19.0147 24.9853 17 22.5 17Z" fill="#FDCC15"/>
<path d="M25.3975 4.88375L24.2095 6.49266L24.2095 6.49266L25.3975 4.88375ZM23.2627 5.06902L24.7102 6.4492L24.7102 6.4492L23.2627 5.06902ZM25.5609 6.76598L24.1134 5.3858L24.1134 5.38581L25.5609 6.76598ZM8.3929 24.7708L9.84035 26.151L9.84035 26.1509L8.3929 24.7708ZM6.25812 24.956L5.07009 26.565L5.07009 26.565L6.25812 24.956ZM6.09477 23.0738L4.64731 21.6936L4.64731 21.6936L6.09477 23.0738ZM9.5 2C5.91015 2 3 4.91015 3 8.5H7C7 7.11929 8.11929 6 9.5 6V2ZM16 8.5C16 4.91015 13.0899 2 9.5 2V6C10.8807 6 12 7.11929 12 8.5H16ZM9.5 15C13.0899 15 16 12.0899 16 8.5H12C12 9.88071 10.8807 11 9.5 11V15ZM3 8.5C3 12.0899 5.91015 15 9.5 15V11C8.11929 11 7 9.88071 7 8.5H3ZM26.5855 3.27484C25.1403 2.20764 23.0551 2.38861 21.8153 3.68885L24.7102 6.4492C24.6118 6.55233 24.516 6.57501 24.4692 6.57907C24.4224 6.58313 24.3241 6.57731 24.2095 6.49266L26.5855 3.27484ZM27.0083 8.14616C28.3836 6.70389 28.1887 4.45862 26.5855 3.27484L24.2095 6.49266C24.0815 6.39818 23.9506 6.21094 23.9288 5.95942C23.907 5.7079 24.0037 5.50091 24.1134 5.3858L27.0083 8.14616ZM9.84035 26.1509L27.0083 8.14616L24.1134 5.38581L6.94545 23.3906L9.84035 26.1509ZM5.07009 26.565C6.51537 27.6322 8.60054 27.4512 9.84035 26.151L6.94545 23.3906C7.04379 23.2875 7.13962 23.2648 7.18641 23.2607C7.23321 23.2567 7.33151 23.2625 7.44615 23.3471L5.07009 26.565ZM4.64731 21.6936C3.27208 23.1359 3.46694 25.3812 5.07009 26.565L7.44615 23.3471C7.5741 23.4416 7.705 23.6289 7.72683 23.8804C7.74866 24.1319 7.65198 24.3389 7.54222 24.454L4.64731 21.6936ZM21.8153 3.68885L4.64731 21.6936L7.54222 24.454L24.7102 6.4492L21.8153 3.68885ZM20 21.5C20 20.1193 21.1193 19 22.5 19V15C18.9101 15 16 17.9101 16 21.5H20ZM22.5 24C21.1193 24 20 22.8807 20 21.5H16C16 25.0899 18.9101 28 22.5 28V24ZM25 21.5C25 22.8807 23.8807 24 22.5 24V28C26.0899 28 29 25.0899 29 21.5H25ZM22.5 19C23.8807 19 25 20.1193 25 21.5H29C29 17.9101 26.0899 15 22.5 15V19Z" fill="white" mask="url(#path-2-inside-1_3_10)"/>
<path d="M33.1342 20L34.8246 9.81818H39.0305C39.7929 9.81818 40.4276 9.96567 40.9347 10.2607C41.4418 10.5556 41.8014 10.9683 42.0135 11.4986C42.2256 12.0289 42.2737 12.6437 42.1577 13.343C42.045 14.049 41.7914 14.6638 41.397 15.1875C41.0059 15.7112 40.5021 16.1172 39.8857 16.4055C39.2692 16.6939 38.5682 16.8381 37.7827 16.8381H35.1925L35.5156 14.8991H37.6534C38.0279 14.8991 38.3511 14.8345 38.6229 14.7053C38.898 14.576 39.1184 14.3954 39.2841 14.1634C39.4498 13.9313 39.5592 13.6579 39.6122 13.343C39.6619 13.0282 39.642 12.7564 39.5526 12.5277C39.4631 12.2957 39.3023 12.1167 39.0703 11.9908C38.8416 11.8648 38.5433 11.8018 38.1754 11.8018H36.9624L35.5952 20H33.1342ZM42.2534 20L43.9437 9.81818H48.1497C48.912 9.81818 49.5484 9.95573 50.0588 10.2308C50.5692 10.5026 50.9321 10.8937 51.1475 11.4041C51.363 11.9112 51.4127 12.5128 51.2967 13.2088C51.184 13.9115 50.9321 14.5097 50.541 15.0036C50.1532 15.4941 49.6528 15.8686 49.0396 16.1271C48.4297 16.3857 47.737 16.5149 46.9615 16.5149H44.3017L44.6298 14.576H46.8322C47.2001 14.576 47.5183 14.5279 47.7868 14.4318C48.0552 14.3324 48.269 14.1832 48.4281 13.9844C48.5905 13.7822 48.6982 13.5237 48.7512 13.2088C48.801 12.8939 48.7778 12.6338 48.6816 12.4283C48.5888 12.2195 48.4248 12.0637 48.1895 11.9609C47.9574 11.8549 47.6592 11.8018 47.2946 11.8018H46.0815L44.7143 20H42.2534ZM48.7562 15.3466L50.5211 20H47.8365L46.1262 15.3466H48.7562ZM62.0627 15.0682C61.8771 16.1652 61.5125 17.0916 60.9689 17.8473C60.4287 18.5997 59.7708 19.1697 58.9952 19.5575C58.223 19.9453 57.3927 20.1392 56.5044 20.1392C55.5665 20.1392 54.7544 19.9304 54.0684 19.5128C53.3823 19.0952 52.8835 18.487 52.5719 17.6882C52.2637 16.8894 52.204 15.92 52.3929 14.7798C52.5719 13.6828 52.9315 12.7547 53.4718 11.9957C54.0153 11.2367 54.6766 10.6617 55.4554 10.2706C56.2376 9.87618 57.0762 9.67898 57.9711 9.67898C58.9024 9.67898 59.7095 9.88944 60.3922 10.3104C61.0783 10.7313 61.5755 11.3428 61.8837 12.1449C62.1919 12.947 62.2516 13.9214 62.0627 15.0682ZM59.6017 14.7798C59.7045 14.1402 59.7045 13.6016 59.6017 13.1641C59.5023 12.7266 59.3068 12.3968 59.0151 12.1747C58.7234 11.9493 58.3439 11.8366 57.8766 11.8366C57.3596 11.8366 56.8922 11.9643 56.4746 12.2195C56.0603 12.4714 55.714 12.8393 55.4355 13.3232C55.1571 13.8037 54.9632 14.3854 54.8539 15.0682C54.7412 15.7145 54.7379 16.2531 54.8439 16.6839C54.9533 17.1148 55.1571 17.4396 55.4554 17.6584C55.7537 17.8738 56.1332 17.9815 56.5939 17.9815C57.1077 17.9815 57.57 17.8572 57.981 17.6087C58.392 17.3601 58.735 16.9972 59.0101 16.5199C59.2885 16.0426 59.4857 15.4626 59.6017 14.7798ZM64.3695 9.81818H67.4171L68.9583 16.1222H69.0776L72.7069 9.81818H75.7544L74.0641 20H71.6678L72.7069 13.7457H72.6223L69.1522 19.9354H67.6259L66.214 13.7109H66.1294L65.0755 20H62.6792L64.3695 9.81818ZM86.0295 15.0682C85.8439 16.1652 85.4793 17.0916 84.9357 17.8473C84.3955 18.5997 83.7376 19.1697 82.962 19.5575C82.1897 19.9453 81.3595 20.1392 80.4712 20.1392C79.5333 20.1392 78.7212 19.9304 78.0352 19.5128C77.3491 19.0952 76.8503 18.487 76.5387 17.6882C76.2305 16.8894 76.1708 15.92 76.3597 14.7798C76.5387 13.6828 76.8983 12.7547 77.4386 11.9957C77.9821 11.2367 78.6433 10.6617 79.4222 10.2706C80.2044 9.87618 81.043 9.67898 81.9379 9.67898C82.8692 9.67898 83.6763 9.88944 84.359 10.3104C85.0451 10.7313 85.5423 11.3428 85.8505 12.1449C86.1587 12.947 86.2184 13.9214 86.0295 15.0682ZM83.5685 14.7798C83.6713 14.1402 83.6713 13.6016 83.5685 13.1641C83.4691 12.7266 83.2736 12.3968 82.9819 12.1747C82.6902 11.9493 82.3107 11.8366 81.8434 11.8366C81.3263 11.8366 80.859 11.9643 80.4414 12.2195C80.0271 12.4714 79.6808 12.8393 79.4023 13.3232C79.1239 13.8037 78.93 14.3854 78.8207 15.0682C78.708 15.7145 78.7047 16.2531 78.8107 16.6839C78.9201 17.1148 79.1239 17.4396 79.4222 17.6584C79.7205 17.8738 80.1 17.9815 80.5607 17.9815C81.0745 17.9815 81.5368 17.8572 81.9478 17.6087C82.3588 17.3601 82.7018 16.9972 82.9769 16.5199C83.2553 16.0426 83.4525 15.4626 83.5685 14.7798ZM99.9648 13.5071H97.5089C97.5221 13.2486 97.4973 13.0182 97.4343 12.8161C97.3713 12.6106 97.2719 12.4349 97.136 12.2891C97.0001 12.1399 96.8311 12.0272 96.6289 11.951C96.4267 11.8748 96.1914 11.8366 95.9229 11.8366C95.4092 11.8366 94.9435 11.9643 94.5259 12.2195C94.1083 12.4747 93.7586 12.8426 93.4769 13.3232C93.1952 13.8037 92.998 14.3804 92.8853 15.0533C92.7826 15.7029 92.7842 16.2448 92.8903 16.679C92.9996 17.1132 93.2018 17.4396 93.4968 17.6584C93.7918 17.8738 94.1663 17.9815 94.6204 17.9815C94.9154 17.9815 95.1888 17.9467 95.4407 17.8771C95.6959 17.8042 95.9263 17.6998 96.1317 17.5639C96.3372 17.428 96.5146 17.264 96.6637 17.0717C96.8162 16.8762 96.9338 16.6591 97.0167 16.4205H99.4925C99.3699 16.8679 99.1677 17.3137 98.886 17.7578C98.6076 18.1986 98.2563 18.598 97.832 18.956C97.4078 19.3139 96.9156 19.6006 96.3555 19.8161C95.7953 20.0315 95.1722 20.1392 94.4862 20.1392C93.5482 20.1392 92.7395 19.9287 92.06 19.5078C91.3839 19.0869 90.895 18.477 90.5934 17.6783C90.2951 16.8762 90.2388 15.9051 90.4244 14.7649C90.6067 13.6612 90.9663 12.7315 91.5032 11.9759C92.0434 11.2202 92.6997 10.6484 93.4719 10.2607C94.2475 9.87287 95.0745 9.67898 95.9528 9.67898C96.5891 9.67898 97.1609 9.76515 97.668 9.9375C98.1784 10.1065 98.6109 10.3551 98.9656 10.6832C99.3202 11.008 99.5837 11.4074 99.756 11.8814C99.9317 12.3554 100.001 12.8973 99.9648 13.5071ZM110.735 15.0682C110.549 16.1652 110.184 17.0916 109.641 17.8473C109.101 18.5997 108.443 19.1697 107.667 19.5575C106.895 19.9453 106.065 20.1392 105.176 20.1392C104.238 20.1392 103.426 19.9304 102.74 19.5128C102.054 19.0952 101.555 18.487 101.244 17.6882C100.936 16.8894 100.876 15.92 101.065 14.7798C101.244 13.6828 101.603 12.7547 102.144 11.9957C102.687 11.2367 103.348 10.6617 104.127 10.2706C104.91 9.87618 105.748 9.67898 106.643 9.67898C107.574 9.67898 108.381 9.88944 109.064 10.3104C109.75 10.7313 110.247 11.3428 110.556 12.1449C110.864 12.947 110.923 13.9214 110.735 15.0682ZM108.274 14.7798C108.376 14.1402 108.376 13.6016 108.274 13.1641C108.174 12.7266 107.979 12.3968 107.687 12.1747C107.395 11.9493 107.016 11.8366 106.548 11.8366C106.031 11.8366 105.564 11.9643 105.146 12.2195C104.732 12.4714 104.386 12.8393 104.107 13.3232C103.829 13.8037 103.635 14.3854 103.526 15.0682C103.413 15.7145 103.41 16.2531 103.516 16.6839C103.625 17.1148 103.829 17.4396 104.127 17.6584C104.426 17.8738 104.805 17.9815 105.266 17.9815C105.78 17.9815 106.242 17.8572 106.653 17.6087C107.064 17.3601 107.407 16.9972 107.682 16.5199C107.96 16.0426 108.158 15.4626 108.274 14.7798ZM115.169 20H111.351L113.041 9.81818H116.745C117.779 9.81818 118.641 10.0286 119.33 10.4496C120.023 10.8672 120.512 11.4671 120.797 12.2493C121.085 13.0282 121.14 13.9562 120.961 15.0334C120.789 16.0741 120.442 16.9657 119.922 17.7081C119.405 18.4505 118.742 19.0189 117.933 19.4134C117.125 19.8045 116.203 20 115.169 20ZM114.155 17.902H115.323C115.893 17.902 116.397 17.7992 116.835 17.5938C117.276 17.3849 117.64 17.0518 117.928 16.5945C118.217 16.1338 118.422 15.5289 118.545 14.7798C118.664 14.0639 118.659 13.4988 118.53 13.0845C118.404 12.6669 118.159 12.3686 117.794 12.1896C117.433 12.0073 116.961 11.9162 116.377 11.9162H115.154L114.155 17.902ZM121.578 20L123.268 9.81818H130.367L130.029 11.8168H125.391L125.053 13.9048H129.328L128.99 15.9084H124.715L124.377 18.0014H129.015L128.677 20H121.578ZM136.895 12.8906C136.922 12.5161 136.822 12.2261 136.597 12.0206C136.375 11.8151 136.023 11.7124 135.543 11.7124C135.225 11.7124 134.953 11.7538 134.727 11.8366C134.502 11.9162 134.325 12.0289 134.195 12.1747C134.066 12.3172 133.985 12.483 133.952 12.6719C133.922 12.821 133.93 12.9536 133.977 13.0696C134.023 13.1856 134.104 13.2884 134.22 13.3778C134.34 13.4673 134.487 13.5452 134.663 13.6115C134.842 13.6778 135.042 13.7358 135.264 13.7855L136.1 13.9844C136.584 14.0938 137.003 14.2396 137.357 14.4219C137.715 14.6009 138.005 14.8179 138.227 15.0732C138.45 15.325 138.602 15.6151 138.685 15.9432C138.768 16.2713 138.774 16.6392 138.705 17.0469C138.599 17.6899 138.345 18.2417 137.944 18.7024C137.546 19.1631 137.026 19.5161 136.383 19.7614C135.743 20.0066 134.999 20.1293 134.151 20.1293C133.302 20.1293 132.581 20.0017 131.988 19.7464C131.398 19.4879 130.971 19.0985 130.705 18.5781C130.44 18.0578 130.369 17.4015 130.492 16.6094H132.843C132.807 16.9375 132.848 17.2109 132.968 17.4297C133.09 17.6484 133.279 17.8142 133.534 17.9268C133.789 18.0395 134.098 18.0959 134.459 18.0959C134.79 18.0959 135.08 18.0511 135.329 17.9616C135.581 17.8722 135.781 17.7479 135.931 17.5888C136.083 17.4297 136.176 17.2474 136.209 17.0419C136.242 16.853 136.211 16.6889 136.115 16.5497C136.022 16.4105 135.863 16.2895 135.637 16.1868C135.415 16.084 135.124 15.9912 134.762 15.9084L133.743 15.6598C132.901 15.4543 132.263 15.1262 131.829 14.6754C131.398 14.2247 131.246 13.6132 131.372 12.8409C131.478 12.2079 131.74 11.6544 132.157 11.1804C132.578 10.7064 133.11 10.3385 133.753 10.0767C134.399 9.81155 135.11 9.67898 135.886 9.67898C136.675 9.67898 137.338 9.81321 137.874 10.0817C138.415 10.3468 138.804 10.7214 139.043 11.2053C139.285 11.6858 139.354 12.2476 139.252 12.8906H136.895Z" fill="white"/>
</svg>
